<?xml version="1.0" encoding="UTF-8" standalone="no"?>
<!DOCTYPE svg PUBLIC "-//W3C//DTD SVG 1.1//EN" "http://www.w3.org/Graphics/SVG/1.1/DTD/svg11.dtd">
<svg width="100%" height="100%" viewBox="0 0 483 102" version="1.1" xmlns="http://www.w3.org/2000/svg" xmlns:xlink="http://www.w3.org/1999/xlink" xml:space="preserve" xmlns:serif="http://www.serif.com/" style="fill-rule:evenodd;clip-rule:evenodd;stroke-linejoin:round;stroke-miterlimit:2;">
    <rect id="Artboard1" x="0" y="0" width="482.14" height="101.96" style="fill:none;"/>
    <g id="Artboard11" serif:id="Artboard1">
        <g transform="matrix(1,0,0,1,27.34,-173.9)">
            <path d="M-25.53,272.3C-23.201,272.336 -20.959,271.405 -19.34,269.73C-17.664,268.104 -16.69,265.884 -16.63,263.55L-16.63,185.71C-16.886,183.542 -17.929,181.541 -19.56,180.09C-21.183,178.57 -23.337,177.744 -25.56,177.79L-27.2,177.79L-27.34,176.4L13.38,176.4C16.527,176.368 19.666,176.091 22.77,175.57C25.2,175.239 27.594,174.68 29.92,173.9L29.92,191.41L28.53,191.41L28.53,188.9C28.541,184.554 25.091,180.918 20.75,180.7L-7.6,180.7L-7.6,223.7L15.89,223.7C17.69,223.649 19.402,222.899 20.66,221.61C21.952,220.329 22.658,218.569 22.61,216.75L22.61,214.75L24,214.75L24,236.75L22.56,236.75L22.56,234.68C22.589,232.91 21.904,231.2 20.66,229.94C19.448,228.646 17.772,227.883 16,227.82L-7.6,227.82L-7.6,269.38L12.27,269.38C19.13,269.38 24.367,267.853 27.98,264.8C31.593,261.747 34.593,257.207 36.98,251.18L38.37,251.18L30.37,273.69L-27.34,273.69L-27.34,272.3L-25.53,272.3Z" style="fill:white;fill-rule:nonzero;"/>
        </g>
        <g transform="matrix(1,0,0,1,27.34,-173.9)">
            <path d="M49.24,268C48.884,265.517 48.747,263.007 48.83,260.5C48.877,256.477 49.58,252.488 50.91,248.69L52.16,248.69C52.07,249.69 52.02,250.69 52.02,251.69C51.84,256.895 53.683,261.972 57.16,265.85C60.593,269.603 65.133,271.48 70.78,271.48C76.62,271.48 81.417,269.72 85.17,266.2C88.874,262.787 90.928,257.935 90.8,252.9C90.972,247.987 88.991,243.236 85.38,239.9L58.66,215.18C53.833,210.935 51.092,204.788 51.16,198.36C51.036,192.08 53.412,186.002 57.76,181.47C62.16,176.803 68.113,174.47 75.62,174.47C79.657,174.517 83.679,174.983 87.62,175.86L93,175.86L93,192.86L91.79,192.86C91.95,188.882 90.284,185.041 87.27,182.44C84.017,179.756 79.883,178.37 75.67,178.55C71.219,178.43 66.91,180.153 63.77,183.31C60.59,186.419 58.858,190.725 59,195.17C58.983,199.859 61.015,204.33 64.56,207.4L91.94,232.69C96.56,236.95 98.893,242.787 98.94,250.2C98.987,257.613 96.623,263.707 91.85,268.48C87.13,273.24 80.83,275.627 72.95,275.64C68.553,275.591 64.181,274.959 59.95,273.76C55.317,272.52 51.747,270.6 49.24,268Z" style="fill:white;fill-rule:nonzero;"/>
        </g>
        <g transform="matrix(1,0,0,1,27.34,-173.9)">
            <path d="M111.51,268C111.151,265.517 111.01,263.007 111.09,260.5C111.136,256.476 111.842,252.486 113.18,248.69L114.43,248.69C114.33,249.69 114.29,250.69 114.29,251.69C114.115,256.879 115.958,261.939 119.43,265.8C122.85,269.553 127.39,271.43 133.05,271.43C138.89,271.43 143.687,269.67 147.44,266.15C151.128,262.752 153.177,257.923 153.06,252.91C153.244,247.999 151.27,243.245 147.66,239.91L121,215.18C116.166,210.939 113.421,204.79 113.49,198.36C113.37,192.079 115.749,186.001 120.1,181.47C124.48,176.803 130.43,174.47 137.95,174.47C141.987,174.517 146.009,174.983 149.95,175.86L155.37,175.86L155.37,192.86L154.12,192.86C154.28,188.882 152.614,185.041 149.6,182.44C146.34,179.773 142.208,178.401 138,178.59C133.563,178.472 129.266,180.179 126.12,183.31C122.939,186.403 121.2,190.695 121.33,195.13C121.313,199.819 123.345,204.29 126.89,207.36L154.27,232.65C158.89,236.91 161.207,242.747 161.22,250.16C161.233,257.573 158.87,263.667 154.13,268.44C149.397,273.2 143.097,275.587 135.23,275.6C130.833,275.551 126.461,274.919 122.23,273.72C117.577,272.5 114.003,270.593 111.51,268Z" style="fill:white;fill-rule:nonzero;"/>
        </g>
        <g transform="matrix(1,0,0,1,27.34,-173.9)">
            <path d="M196.37,237.39L196.66,237.39L196.66,237.75L189.3,237.75L189.3,237.39L189.59,237.39C189.977,237.393 190.345,237.22 190.59,236.92C190.827,236.668 190.971,236.344 191,236C191,235.727 190.953,235.457 190.86,235.2L188.86,230.42L179.78,230.42L177.78,235.09C177.66,235.368 177.599,235.667 177.6,235.97C177.623,236.3 177.749,236.615 177.96,236.87C178.222,237.194 178.624,237.372 179.04,237.35L179.32,237.35L179.32,237.71L172.47,237.71L172.47,237.35L172.75,237.35C173.3,237.33 173.832,237.149 174.28,236.83C174.831,236.429 175.269,235.891 175.55,235.27C180.803,224.063 183.533,218.197 183.74,217.67C184.031,217.03 184.249,216.359 184.39,215.67L184.71,215.67L193.58,235.28C193.99,236.485 195.099,237.323 196.37,237.39ZM180.24,229.39L188.43,229.39L184.43,219.55L180.24,229.39Z" style="fill:white;fill-rule:nonzero;"/>
        </g>
        <g transform="matrix(1,0,0,1,27.34,-173.9)">
            <path d="M222.58,216.56C222.074,216.554 221.584,216.74 221.21,217.08C220.838,217.404 220.617,217.867 220.6,218.36L220.6,233.66C220.592,234.998 220.679,236.334 220.86,237.66L220.93,238.3L220.6,238.3L201.93,220.6L201.93,235.6C201.92,236.106 202.132,236.592 202.51,236.93C202.892,237.279 203.392,237.472 203.91,237.47L204.52,237.47L204.52,237.83L197.73,237.83L197.73,237.47L198.34,237.47C198.858,237.472 199.358,237.279 199.74,236.93C200.109,236.586 200.319,236.104 200.32,235.6L200.32,220.15C200.329,218.842 200.242,217.535 200.06,216.24L199.99,215.67L200.39,215.67L219,233.23L219,218.36C218.963,217.866 218.733,217.406 218.36,217.08C217.986,216.74 217.496,216.554 216.99,216.56L216.38,216.56L216.38,216.2L223.17,216.2L223.17,216.56L222.58,216.56Z" style="fill:white;fill-rule:nonzero;"/>
        </g>
        <g transform="matrix(1,0,0,1,27.34,-173.9)">
            <path d="M249.94,227C250.089,229.949 248.958,232.823 246.84,234.88C244.511,236.897 241.487,237.934 238.41,237.77L226.41,237.77L226.41,237.41L226.88,237.41C227.413,237.418 227.929,237.213 228.31,236.84C228.683,236.48 228.902,235.988 228.92,235.47L228.92,218.5C228.914,217.968 228.69,217.462 228.3,217.1C227.906,216.73 227.379,216.535 226.84,216.56L226.41,216.56L226.41,216.2L238.41,216.2C240.527,216.144 242.628,216.589 244.54,217.5C246.221,218.308 247.617,219.609 248.54,221.23C249.507,222.996 249.99,224.987 249.94,227ZM231.27,217.3L231.27,236.69L238.41,236.69C240.862,236.809 243.249,235.86 244.95,234.09C248.153,229.919 248.153,224.071 244.95,219.9C243.254,218.122 240.863,217.172 238.41,217.3L231.27,217.3Z" style="fill:white;fill-rule:nonzero;"/>
        </g>
        <g transform="matrix(1,0,0,1,27.34,-173.9)">
            <path d="M262.91,236.28C262.809,235.639 262.772,234.989 262.8,234.34C262.818,233.317 263,232.304 263.34,231.34L263.66,231.34L263.66,232.13C263.619,233.469 264.095,234.773 264.99,235.77C265.896,236.742 267.182,237.272 268.51,237.22C269.879,237.269 271.215,236.78 272.23,235.86C273.188,234.963 273.71,233.692 273.66,232.38C273.708,231.11 273.196,229.88 272.26,229.02L265.37,222.63C264.122,221.536 263.412,219.95 263.43,218.29C263.397,216.667 264.009,215.095 265.13,213.92C266.331,212.671 268.02,212.009 269.75,212.11C270.79,212.12 271.826,212.241 272.84,212.47L274.24,212.47L274.24,216.9L273.91,216.9C273.951,215.872 273.524,214.878 272.75,214.2C271.907,213.509 270.839,213.153 269.75,213.2C268.596,213.15 267.473,213.59 266.66,214.41C265.828,215.201 265.376,216.313 265.42,217.46C265.415,218.672 265.942,219.828 266.86,220.62L273.93,227.16C275.155,228.334 275.809,229.986 275.72,231.68C275.779,233.436 275.117,235.142 273.89,236.4C272.587,237.66 270.821,238.33 269.01,238.25C267.874,238.231 266.745,238.07 265.65,237.77C264.621,237.524 263.676,237.009 262.91,236.28Z" style="fill:white;fill-rule:nonzero;"/>
        </g>
        <g transform="matrix(1,0,0,1,27.34,-173.9)">
            <path d="M285.6,217.12C289.431,215.221 293.939,215.221 297.77,217.12C299.574,218.027 301.095,219.411 302.17,221.12C304.336,224.717 304.336,229.233 302.17,232.83C301.095,234.539 299.573,235.922 297.77,236.83C296.021,237.751 294.076,238.238 292.1,238.25C290.352,238.278 288.612,238.001 286.96,237.43C285.541,236.911 284.232,236.131 283.1,235.13C281.995,234.13 281.116,232.906 280.52,231.54C279.848,229.961 279.524,228.256 279.57,226.54C279.57,224.607 280.137,222.715 281.2,221.1C282.274,219.396 283.797,218.019 285.6,217.12ZM284.93,234.32C288.53,238.015 294.531,238.096 298.23,234.5L298.42,234.32C302.042,230.118 302.042,223.832 298.42,219.63C296.649,217.807 294.212,216.776 291.67,216.776C289.221,216.776 286.866,217.733 285.11,219.44L284.93,219.63C281.333,223.842 281.333,230.108 284.93,234.32Z" style="fill:white;fill-rule:nonzero;"/>
        </g>
        <g transform="matrix(1,0,0,1,27.34,-173.9)">
            <path d="M310.54,235.2C306.324,230.548 306.324,223.372 310.54,218.72C312.66,216.72 315.55,215.72 319.21,215.72C320.725,215.718 322.235,215.913 323.7,216.3C325.11,216.618 326.46,217.158 327.7,217.9L328.49,222.99L328.17,222.99C327.13,218.877 324.16,216.82 319.26,216.82C316.719,216.691 314.247,217.691 312.51,219.55C310.756,221.623 309.858,224.289 310,227C309.952,228.848 310.332,230.683 311.11,232.36C311.797,233.823 312.904,235.049 314.29,235.88C315.785,236.739 317.486,237.174 319.21,237.14C320.882,237.172 322.544,236.887 324.11,236.3C325.511,235.719 326.718,234.751 327.59,233.51C328.558,232.088 329.102,230.419 329.16,228.7L329.48,228.7L329.08,233.62C328.071,235.114 326.655,236.287 325,237C323.174,237.832 321.187,238.255 319.18,238.24C315.54,238.22 312.66,237.207 310.54,235.2Z" style="fill:white;fill-rule:nonzero;"/>
        </g>
        <g transform="matrix(1,0,0,1,27.34,-173.9)">
            <path d="M333.36,237.39C333.969,237.4 334.563,237.199 335.04,236.82C335.481,236.501 335.747,235.994 335.76,235.45L335.76,218.5C335.751,217.958 335.483,217.452 335.04,217.14C334.556,216.745 333.944,216.539 333.32,216.56L332.85,216.56L332.85,216.2L341,216.2L341,216.56L340.53,216.56C339.928,216.54 339.337,216.731 338.86,217.1C338.42,217.408 338.138,217.895 338.09,218.43L338.09,235.49C338.121,236.03 338.402,236.526 338.85,236.83C339.33,237.202 339.923,237.399 340.53,237.39L341,237.39L341,237.75L332.84,237.75L332.84,237.39L333.36,237.39Z" style="fill:white;fill-rule:nonzero;"/>
        </g>
        <g transform="matrix(1,0,0,1,27.34,-173.9)">
            <path d="M366.66,237.39L366.94,237.39L366.94,237.75L359.58,237.75L359.58,237.39L359.87,237.39C360.257,237.393 360.625,237.22 360.87,236.92C361.08,236.672 361.207,236.364 361.23,236.04C361.23,235.767 361.183,235.497 361.09,235.24L359.09,230.46L350.09,230.46L348.09,235.13C347.97,235.408 347.909,235.707 347.91,236.01C347.933,236.34 348.059,236.655 348.27,236.91C348.532,237.234 348.934,237.412 349.35,237.39L349.69,237.39L349.69,237.75L342.84,237.75L342.84,237.39L343.12,237.39C343.67,237.37 344.202,237.189 344.65,236.87C345.201,236.469 345.639,235.931 345.92,235.31C351.173,224.103 353.903,218.237 354.11,217.71C354.401,217.07 354.619,216.399 354.76,215.71L355.08,215.71L363.95,235.32C364.36,236.486 365.428,237.301 366.66,237.39ZM350.53,229.39L358.72,229.39L354.72,219.55L350.53,229.39Z" style="fill:white;fill-rule:nonzero;"/>
        </g>
        <g transform="matrix(1,0,0,1,27.34,-173.9)">
            <path d="M369.23,237.39C369.769,237.406 370.292,237.204 370.68,236.83C371.06,236.485 371.287,236.002 371.31,235.49L371.31,218.49C371.291,217.964 371.051,217.47 370.65,217.13C370.248,216.75 369.713,216.541 369.16,216.55L368.73,216.55L368.73,216.2L376.16,216.2L376.16,216.56L375.73,216.56C375.176,216.549 374.641,216.758 374.24,217.14C373.854,217.484 373.642,217.983 373.66,218.5L373.66,236.64L379.26,236.64C380.225,236.658 381.182,236.46 382.06,236.06C382.738,235.743 383.336,235.279 383.81,234.7C384.268,234.045 384.657,233.345 384.97,232.61L385.33,232.61L383.33,237.75L368.73,237.75L368.73,237.39L369.23,237.39Z" style="fill:white;fill-rule:nonzero;"/>
        </g>
        <g transform="matrix(1,0,0,1,27.34,-173.9)">
            <path d="M173.3,200.52C173.869,200.519 174.412,200.275 174.79,199.85C175.197,199.415 175.428,198.845 175.44,198.25L175.44,178.12C175.381,177.568 175.134,177.052 174.74,176.66C174.359,176.277 173.84,176.064 173.3,176.07L172.9,176.07L172.9,175.71L182.66,175.71C183.415,175.702 184.168,175.628 184.91,175.49C185.507,175.411 186.094,175.266 186.66,175.06L186.66,179.59L186.33,179.59L186.33,179C186.34,178.455 186.143,177.926 185.78,177.52C185.449,177.13 184.971,176.895 184.46,176.87L177.66,176.87L177.66,187.9L183.3,187.9C183.734,187.879 184.144,187.688 184.44,187.37C184.746,187.023 184.911,186.573 184.9,186.11L184.9,185.6L185.24,185.6L185.24,191.28L184.9,191.28L184.9,190.74C184.906,190.292 184.746,189.857 184.45,189.52C184.166,189.195 183.761,188.999 183.33,188.98L177.66,188.98L177.66,199.76L182.43,199.76C183.792,199.85 185.141,199.429 186.21,198.58C187.195,197.585 187.937,196.378 188.38,195.05L188.66,195.05L186.72,200.9L172.87,200.9L172.87,200.54L173.3,200.52Z" style="fill:white;fill-rule:nonzero;"/>
        </g>
        <g transform="matrix(1,0,0,1,27.34,-173.9)">
            <path d="M214.4,179.67C213.413,179.68 212.597,180.474 212.56,181.46L212.56,196.78C212.552,198.1 212.629,199.42 212.79,200.73L212.86,201.38L212.56,201.38L195.2,183.66L195.2,198.66C195.2,198.67 195.2,198.68 195.2,198.69C195.2,199.699 196.03,200.53 197.04,200.53C197.04,200.53 197.66,200.53 197.66,200.53L197.66,200.9L191.35,200.9L191.35,200.54L191.91,200.54C192.399,200.547 192.87,200.352 193.21,200C193.562,199.648 193.756,199.168 193.75,198.67L193.75,183.26C193.753,181.95 193.677,180.641 193.52,179.34L193.45,178.77L193.82,178.77L211.14,196.35L211.14,181.46C211.109,180.976 210.894,180.522 210.54,180.19C210.205,179.851 209.746,179.663 209.27,179.67L208.66,179.67L208.66,179.31L215,179.31L215,179.67L214.4,179.67Z" style="fill:white;fill-rule:nonzero;"/>
        </g>
        <g transform="matrix(1,0,0,1,27.34,-173.9)">
            <path d="M238.46,179.67L238.2,179.67C237.675,179.673 237.166,179.857 236.76,180.19C236.231,180.597 235.818,181.135 235.56,181.75C230.713,192.97 228.187,198.843 227.98,199.37C227.7,200.01 227.499,200.682 227.38,201.37L227.08,201.37L218.83,181.79C218.19,180.37 217.33,179.67 216.26,179.67L216,179.67L216,179.31L222.84,179.31L222.84,179.67L222.57,179.67C222.188,179.634 221.818,179.821 221.62,180.15C221.43,180.406 221.318,180.712 221.3,181.03C221.302,181.31 221.339,181.589 221.41,181.86L227.41,197.53L233.52,181.9C233.62,181.617 233.678,181.32 233.69,181.02C233.673,180.694 233.558,180.38 233.36,180.12C233.13,179.801 232.753,179.62 232.36,179.64L232.13,179.64L232.13,179.31L238.47,179.31L238.46,179.67Z" style="fill:white;fill-rule:nonzero;"/>
        </g>
        <g transform="matrix(1,0,0,1,27.34,-173.9)">
            <path d="M240.57,200.52C241.144,200.527 241.7,200.32 242.13,199.94C242.546,199.61 242.792,199.111 242.8,198.58L242.8,181.58C242.802,181.044 242.554,180.537 242.13,180.21C241.686,179.829 241.115,179.626 240.53,179.64L240.1,179.64L240.1,179.31L247.66,179.31L247.66,179.67L247.23,179.67C246.659,179.642 246.097,179.831 245.66,180.2C245.241,180.519 244.978,181.004 244.94,181.53L244.94,198.61C244.96,199.142 245.217,199.638 245.64,199.96C246.08,200.327 246.637,200.525 247.21,200.52L247.66,200.52L247.66,200.88L240.09,200.88L240.09,200.52L240.57,200.52Z" style="fill:white;fill-rule:nonzero;"/>
        </g>
        <g transform="matrix(1,0,0,1,27.34,-173.9)">
            <path d="M257.56,180.42L255.79,180.42L255.79,198.58C255.789,198.607 255.788,198.634 255.788,198.662C255.788,199.647 256.575,200.468 257.56,200.51L258.12,200.51L258.12,200.87L251.27,200.87L251.27,200.51L251.74,200.51C252.238,200.511 252.715,200.308 253.06,199.95C253.418,199.593 253.617,199.106 253.61,198.6L253.61,181.53C253.623,181.029 253.423,180.545 253.06,180.2C252.71,179.852 252.233,179.66 251.74,179.67L251.27,179.67L251.27,179.31L259.66,179.31C261.465,179.209 263.245,179.775 264.66,180.9C265.833,181.893 266.498,183.363 266.47,184.9C266.514,186.436 265.991,187.935 265,189.11C264.052,190.216 262.71,190.912 261.26,191.05C262.34,191.772 263.223,192.752 263.83,193.9C264.437,195.048 264.19,194.42 264.98,195.48C265.77,196.54 266.41,197.35 266.89,197.94C267.259,198.411 267.653,198.861 268.07,199.29C268.802,200.083 269.831,200.539 270.91,200.55L270.91,200.9L269.91,200.9C268.446,200.982 266.993,200.589 265.77,199.78C264.974,199.192 264.263,198.495 263.66,197.71L262,195.18C261,193.68 260.48,192.88 260.41,192.79C259.21,191.18 258.09,190.38 257.04,190.38L257.04,190C259.64,190 261.21,189.86 261.75,189.57C262.351,189.27 262.867,188.822 263.25,188.27C263.801,187.309 264.087,186.218 264.08,185.11C264.158,183.867 263.725,182.645 262.88,181.73C262.015,180.912 260.871,180.451 259.68,180.44C259,180.43 258.33,180.42 257.56,180.42Z" style="fill:white;fill-rule:nonzero;"/>
        </g>
        <g transform="matrix(1,0,0,1,27.34,-173.9)">
            <path d="M277.66,180.22C281.193,178.33 285.447,178.33 288.98,180.22C290.681,181.157 292.095,182.54 293.07,184.22C295.162,187.839 295.189,192.307 293.14,195.95C291.19,199.272 287.632,201.336 283.78,201.38C282.148,201.411 280.526,201.13 279,200.55C277.665,200.025 276.445,199.243 275.41,198.25C274.374,197.229 273.557,196.008 273.01,194.66C272.391,193.067 272.092,191.368 272.13,189.66C272.128,187.74 272.651,185.855 273.64,184.21C274.597,182.543 275.986,181.164 277.66,180.22ZM277.05,197.44C278.622,199.255 280.908,200.3 283.309,200.3C285.304,200.3 287.234,199.579 288.74,198.27C289.037,198.011 289.318,197.734 289.58,197.44C292.957,193.14 292.957,187.04 289.58,182.74C288.014,180.912 285.723,179.858 283.315,179.858C280.907,179.858 278.616,180.912 277.05,182.74C273.687,187.045 273.687,193.135 277.05,197.44Z" style="fill:white;fill-rule:nonzero;"/>
        </g>
        <g transform="matrix(1,0,0,1,27.34,-173.9)">
            <path d="M320.51,179.67C320.033,179.66 319.573,179.848 319.24,180.19C318.887,180.521 318.679,180.977 318.66,181.46L318.66,196.78C318.65,198.101 318.73,199.42 318.9,200.73L318.96,201.38L318.66,201.38L301.32,183.66L301.32,198.66C301.3,199.158 301.493,199.642 301.85,199.99C302.193,200.338 302.662,200.533 303.15,200.53L303.72,200.53L303.72,200.9L297.41,200.9L297.41,200.54L298,200.54C298.488,200.543 298.957,200.348 299.3,200C299.649,199.647 299.84,199.166 299.83,198.67L299.83,183.26C299.838,181.95 299.762,180.64 299.6,179.34L299.53,178.77L299.9,178.77L317.23,196.35L317.23,181.46C317.19,180.978 316.977,180.527 316.63,180.19C316.295,179.851 315.836,179.663 315.36,179.67L314.79,179.67L314.79,179.31L321.1,179.31L321.1,179.67L320.51,179.67Z" style="fill:white;fill-rule:nonzero;"/>
        </g>
        <g transform="matrix(1,0,0,1,27.34,-173.9)">
            <path d="M350.82,200.52L351.32,200.52L351.32,200.9L344.38,200.9L344.38,200.57L344.88,200.57C345.219,200.57 345.542,200.42 345.76,200.16C346.011,199.891 346.128,199.524 346.08,199.16L344.34,184.35L338,197.72C337.461,198.891 337.068,200.123 336.83,201.39L336.49,201.39L328.49,184.67L327,199.16C326.939,199.523 327.054,199.895 327.31,200.16C327.537,200.433 327.875,200.591 328.23,200.59L328.63,200.59L328.63,200.9L322.45,200.9L322.45,200.54L322.95,200.54C324.106,200.567 325.101,199.69 325.22,198.54L327.86,178.85L328.19,178.85L337,197.07L345.52,178.8L345.82,178.8L348.52,198.54C348.652,199.684 349.639,200.553 350.79,200.54L350.82,200.52Z" style="fill:white;fill-rule:nonzero;"/>
        </g>
        <g transform="matrix(1,0,0,1,27.34,-173.9)">
            <path d="M353.86,200.52C354.366,200.521 354.853,200.319 355.21,199.96C355.568,199.6 355.775,199.117 355.79,198.61L355.79,181.53C355.795,181.029 355.592,180.547 355.23,180.2C354.866,179.842 354.37,179.65 353.86,179.67L353.39,179.67L353.39,179.31L363.14,179.31C363.945,179.312 364.749,179.238 365.54,179.09C365.993,179.01 366.438,178.89 366.87,178.73L366.87,182.83L366.51,182.83L366.51,182.25C366.496,181.786 366.315,181.342 366,181C365.707,180.643 365.262,180.443 364.8,180.46L357.9,180.46L357.9,189.59L363.6,189.59C363.982,189.608 364.351,189.45 364.6,189.16C364.874,188.837 365.017,188.423 365,188L365,187.53L365.37,187.53L365.37,192.53L365,192.53L365,192.06C365.061,191.506 364.785,190.966 364.3,190.69C364.117,190.62 363.925,190.573 363.73,190.55L357.93,190.55L357.93,199.68L363.17,199.68C364.063,199.702 364.949,199.507 365.75,199.11C366.381,198.778 366.931,198.31 367.36,197.74C367.792,197.082 368.164,196.386 368.47,195.66L368.81,195.66L366.99,200.86L353.39,200.86L353.39,200.5L353.86,200.52Z" style="fill:white;fill-rule:nonzero;"/>
        </g>
        <g transform="matrix(1,0,0,1,27.34,-173.9)">
            <path d="M394.05,179.67C393.063,179.68 392.247,180.474 392.21,181.46L392.21,196.78C392.202,198.1 392.279,199.42 392.44,200.73L392.51,201.38L392.21,201.38L374.85,183.66L374.85,198.66C374.85,198.67 374.85,198.68 374.85,198.69C374.85,199.699 375.68,200.53 376.69,200.53C376.69,200.53 377.26,200.53 377.26,200.53L377.26,200.9L371,200.9L371,200.54L371.56,200.54C372.052,200.545 372.525,200.35 372.87,200C373.217,199.645 373.408,199.166 373.4,198.67L373.4,183.26C373.403,181.95 373.327,180.641 373.17,179.34L373.1,178.77L373.47,178.77L390.79,196.35L390.79,181.46C390.759,180.976 390.544,180.522 390.19,180.19C389.855,179.851 389.396,179.663 388.92,179.67L388.35,179.67L388.35,179.31L394.71,179.31L394.71,179.67L394.05,179.67Z" style="fill:white;fill-rule:nonzero;"/>
        </g>
        <g transform="matrix(1,0,0,1,27.34,-173.9)">
            <path d="M406.53,180.35L406.53,198.61C406.524,199.307 406.911,199.95 407.53,200.27C407.838,200.433 408.181,200.519 408.53,200.52L408.9,200.52L408.9,200.9L402,200.9L402,200.54L402.4,200.54C402.915,200.52 403.4,200.288 403.74,199.9C404.103,199.538 404.317,199.052 404.34,198.54L404.34,180.35L398.34,180.35C397.872,180.329 397.42,180.529 397.12,180.89C396.812,181.25 396.642,181.707 396.64,182.18L396.64,182.76L396.27,182.76L396.27,178.69C396.877,178.922 397.513,179.07 398.16,179.13C398.97,179.22 399.58,179.27 399.98,179.27L410.86,179.27C412.146,179.328 413.431,179.131 414.64,178.69L414.64,182.76L414.27,182.76L414.27,182.18C414.264,181.703 414.079,181.246 413.75,180.9C413.457,180.543 413.012,180.343 412.55,180.36L406.53,180.35Z" style="fill:white;fill-rule:nonzero;"/>
        </g>
        <g transform="matrix(1,0,0,1,27.34,-173.9)">
            <path d="M437.11,200.52L437.37,200.52L437.37,200.9L430.53,200.9L430.53,200.54L430.8,200.54C431.19,200.559 431.565,200.382 431.8,200.07C431.996,199.817 432.111,199.51 432.13,199.19C432.127,198.915 432.084,198.642 432,198.38L430.16,193.6L421.66,193.6L419.83,198.27C419.718,198.55 419.66,198.849 419.66,199.15C419.673,199.479 419.792,199.795 420,200.05C420.222,200.379 420.604,200.566 421,200.54L421.26,200.54L421.26,200.9L414.89,200.9L414.89,200.54L415.16,200.54C415.671,200.51 416.162,200.329 416.57,200.02C417.097,199.609 417.507,199.068 417.76,198.45C422.633,187.23 425.17,181.36 425.37,180.84C425.642,180.197 425.844,179.527 425.97,178.84L426.27,178.84L434.52,198.47C435.18,199.82 436,200.52 437.11,200.52ZM422.11,192.52L429.72,192.52L426,182.67L422.11,192.52Z" style="fill:white;fill-rule:nonzero;"/>
        </g>
        <g transform="matrix(1,0,0,1,27.34,-173.9)">
            <path d="M439.51,200.52C440.016,200.521 440.503,200.319 440.86,199.96C441.221,199.602 441.432,199.119 441.45,198.61L441.45,181.61C441.429,181.09 441.207,180.598 440.83,180.24C440.466,179.865 439.962,179.659 439.44,179.67L439,179.67L439,179.31L446,179.31L446,179.67L445.6,179.67C445.081,179.661 444.581,179.868 444.22,180.24C443.837,180.591 443.622,181.09 443.63,181.61L443.63,199.76L448.84,199.76C449.74,199.783 450.632,199.587 451.44,199.19C452.076,198.861 452.63,198.392 453.06,197.82C453.492,197.165 453.857,196.468 454.15,195.74L454.48,195.74L452.65,200.9L439,200.9L439,200.54L439.51,200.52Z" style="fill:white;fill-rule:nonzero;"/>
        </g>
        <g transform="matrix(1,0,0,1,27.34,-173.9)">
            <path d="M173.13,273.83C173.034,273.168 172.997,272.499 173.02,271.83C173.03,270.776 173.219,269.731 173.58,268.74L173.91,268.74C173.89,269.006 173.89,269.274 173.91,269.54C173.866,270.901 174.358,272.227 175.28,273.23C176.226,274.218 177.553,274.754 178.92,274.7C180.329,274.751 181.706,274.257 182.76,273.32C183.739,272.436 184.287,271.169 184.26,269.85C184.303,268.559 183.772,267.313 182.81,266.45L175.66,260C174.379,258.9 173.647,257.289 173.66,255.6C173.629,253.951 174.264,252.356 175.42,251.18C176.679,249.923 178.414,249.258 180.19,249.35C181.263,249.36 182.332,249.481 183.38,249.71L184.82,249.71L184.82,254.18L184.49,254.18C184.532,253.135 184.084,252.128 183.28,251.46C182.407,250.761 181.307,250.405 180.19,250.46C179.011,250.424 177.866,250.868 177.02,251.69C176.173,252.49 175.707,253.615 175.74,254.78C175.732,256.013 176.275,257.188 177.22,257.98L184.52,264.59C185.782,265.769 186.463,267.445 186.38,269.17C186.435,270.955 185.75,272.685 184.49,273.95C183.142,275.217 181.339,275.892 179.49,275.82C178.32,275.808 177.157,275.643 176.03,275.33C174.946,275.101 173.943,274.583 173.13,273.83Z" style="fill:white;fill-rule:nonzero;"/>
        </g>
        <g transform="matrix(1,0,0,1,27.34,-173.9)">
            <path d="M213.14,253.9L212.58,253.9C211.976,253.867 211.399,254.162 211.07,254.67C210.909,254.891 210.818,255.156 210.81,255.43L210.81,267.66C210.922,269.927 210.015,272.129 208.34,273.66C204.306,276.574 198.824,276.574 194.79,273.66C193.091,272.145 192.173,269.933 192.3,267.66L192.3,255.45C192.302,255.021 192.111,254.613 191.78,254.34C191.436,254.029 190.984,253.864 190.52,253.88L190,253.88L190,253.52L197,253.52L197,253.9L196.44,253.9C195.977,253.887 195.526,254.052 195.18,254.36C194.846,254.63 194.654,255.04 194.66,255.47L194.66,267.26C194.549,269.279 195.206,271.266 196.5,272.82C197.855,274.211 199.752,274.942 201.69,274.82C203.679,274.921 205.628,274.23 207.11,272.9C208.485,271.502 209.211,269.588 209.11,267.63L209.11,255.45C209.099,255.014 208.903,254.602 208.57,254.32C208.228,254.021 207.784,253.864 207.33,253.88L206.77,253.88L206.77,253.52L213.15,253.52L213.14,253.9Z" style="fill:white;fill-rule:nonzero;"/>
        </g>
        <g transform="matrix(1,0,0,1,27.34,-173.9)">
            <path d="M216.59,274.13C216.494,273.538 216.457,272.939 216.48,272.34C216.483,271.413 216.646,270.493 216.96,269.62L217.41,269.62C217.39,269.836 217.39,270.054 217.41,270.27C217.348,271.472 217.803,272.645 218.66,273.49C219.663,274.372 220.977,274.822 222.31,274.74C223.672,274.815 225.02,274.423 226.13,273.63C227.014,272.944 227.523,271.879 227.5,270.76C227.52,269.634 227.026,268.559 226.16,267.84L218.75,262.24C217.564,261.259 216.905,259.777 216.97,258.24C216.961,257.307 217.236,256.393 217.76,255.62C218.316,254.793 219.087,254.133 219.99,253.71C221.038,253.212 222.19,252.968 223.35,253C224.496,252.98 225.64,253.091 226.76,253.33L228,253.33L228.07,257.33L227.68,257.33C227.75,256.396 227.352,255.485 226.62,254.9C225.718,254.28 224.632,253.984 223.54,254.06C222.359,254.01 221.195,254.363 220.24,255.06C219.411,255.654 218.928,256.621 218.95,257.64C218.966,258.733 219.501,259.755 220.39,260.39L227.88,266.05C229.029,266.992 229.664,268.426 229.59,269.91C229.597,271.515 228.898,273.044 227.68,274.09C226.395,275.22 224.731,275.827 223.02,275.79C221.797,275.788 220.579,275.643 219.39,275.36C218.374,275.173 217.415,274.752 216.59,274.13Z" style="fill:white;fill-rule:nonzero;"/>
        </g>
        <g transform="matrix(1,0,0,1,27.34,-173.9)">
            <path d="M243.51,254.58L243.51,273C243.523,273.724 243.957,274.378 244.62,274.67C244.955,274.838 245.325,274.924 245.7,274.92L246.11,274.92L246.11,275.28L238.47,275.28L238.47,275L238.91,275C239.472,275.009 240.017,274.801 240.43,274.42C240.828,274.067 241.069,273.571 241.1,273.04L241.1,254.58L234.39,254.58C233.883,254.552 233.388,254.75 233.04,255.12C232.702,255.471 232.518,255.943 232.53,256.43L232.53,257L232.13,257L232.13,252.9C232.806,253.133 233.508,253.28 234.22,253.34C234.88,253.42 235.55,253.46 236.22,253.48L248.31,253.48C249.717,253.532 251.121,253.335 252.46,252.9L252.46,257L252.06,257L252.06,256.42C252.064,255.932 251.877,255.462 251.54,255.11C251.193,254.745 250.704,254.547 250.2,254.57L243.51,254.58Z" style="fill:white;fill-rule:nonzero;"/>
        </g>
        <g transform="matrix(1,0,0,1,27.34,-173.9)">
            <path d="M277.48,275L277.77,275L277.77,275.36L270.17,275.36L270.17,275L270.47,275C270.881,275.023 271.279,274.848 271.54,274.53C271.759,274.283 271.889,273.97 271.91,273.64C271.909,273.361 271.862,273.084 271.77,272.82L269.77,267.99L260.38,267.99L258.38,272.71C258.257,272.991 258.192,273.294 258.19,273.6C258.212,273.935 258.342,274.254 258.56,274.51C258.827,274.845 259.242,275.028 259.67,275L259.97,275L259.97,275.36L252.89,275.36L252.89,275L253.18,275C253.747,274.983 254.297,274.798 254.76,274.47C255.3,274.06 255.726,273.52 256,272.9C261.4,261.567 264.217,255.633 264.45,255.1C264.748,254.461 264.972,253.79 265.12,253.1L265.45,253.1L274.65,272.9C275.092,274.098 276.206,274.924 277.48,275ZM260.83,266.94L269.28,266.94L265.13,256.94L260.83,266.94Z" style="fill:white;fill-rule:nonzero;"/>
        </g>
        <g transform="matrix(1,0,0,1,27.34,-173.9)">
            <path d="M280.15,275C280.779,275.007 281.392,274.803 281.89,274.42C282.351,274.109 282.637,273.596 282.66,273.04L282.66,255.9C282.651,255.348 282.375,254.833 281.92,254.52C281.414,254.121 280.784,253.912 280.14,253.93L279.66,253.93L279.66,253.57L288,253.57L288,253.9L287.52,253.9C286.898,253.884 286.288,254.078 285.79,254.45C285.335,254.753 285.04,255.246 284.99,255.79L284.99,273C285.036,273.546 285.322,274.045 285.77,274.36C286.276,274.733 286.891,274.929 287.52,274.92L288,274.92L288,275.28L279.62,275.28L279.62,275L280.15,275Z" style="fill:white;fill-rule:nonzero;"/>
        </g>
        <g transform="matrix(1,0,0,1,27.34,-173.9)">
            <path d="M317,253.9C316.481,253.88 315.976,254.071 315.6,254.43C315.211,254.747 314.981,255.219 314.97,255.72L314.97,271.18C314.962,272.518 315.049,273.854 315.23,275.18L315.3,275.83L315,275.83L295.66,257.9L295.66,273.07C295.654,273.586 295.873,274.079 296.26,274.42C296.652,274.78 297.168,274.974 297.7,274.96L298.33,274.96L298.33,275.32L291.33,275.32L291.33,275L292,275C292.53,275.006 293.044,274.813 293.44,274.46C293.82,274.115 294.035,273.623 294.03,273.11L294.03,257.52C294.044,256.182 293.957,254.845 293.77,253.52L293.7,252.94L294.11,252.94L313.35,270.71L313.35,255.71C313.306,255.211 313.069,254.748 312.69,254.42C312.303,254.082 311.804,253.9 311.29,253.91L310.69,253.91L310.69,253.55L317.69,253.55L317.69,253.91L317,253.9Z" style="fill:white;fill-rule:nonzero;"/>
        </g>
        <g transform="matrix(1,0,0,1,27.34,-173.9)">
            <path d="M343.41,275L343.66,275L343.66,275.36L336.06,275.36L336.06,275L336.36,275C336.771,275.023 337.169,274.848 337.43,274.53C337.649,274.283 337.779,273.97 337.8,273.64C337.799,273.361 337.752,273.084 337.66,272.82L335.66,267.99L326.28,267.99L324.28,272.71C324.157,272.991 324.092,273.294 324.09,273.6C324.112,273.935 324.242,274.254 324.46,274.51C324.727,274.845 325.142,275.028 325.57,275L325.87,275L325.87,275.36L318.79,275.36L318.79,275L319.08,275C319.647,274.983 320.197,274.798 320.66,274.47C321.209,274.076 321.649,273.55 321.94,272.94C327.353,261.607 330.17,255.673 330.39,255.14C330.688,254.501 330.912,253.83 331.06,253.14L331.39,253.14L340.55,272.94C341.011,274.13 342.135,274.94 343.41,275ZM326.76,266.94L335.21,266.94L331.06,256.94L326.76,266.94Z" style="fill:white;fill-rule:nonzero;"/>
        </g>
        <g transform="matrix(1,0,0,1,27.34,-173.9)">
            <path d="M360.28,256.54C360.67,257.329 360.862,258.2 360.84,259.08C360.826,260.113 360.402,261.1 359.66,261.82C358.884,262.629 357.896,263.204 356.81,263.48C358.469,263.604 360.04,264.28 361.27,265.4C362.34,266.293 362.971,267.607 363,269C363.042,270.109 362.779,271.209 362.24,272.18C361.758,272.981 361.067,273.634 360.24,274.07C358.554,274.931 356.683,275.367 354.79,275.34L345.52,275.34L345.52,275L346,275C346.571,275.01 347.126,274.811 347.56,274.44C347.963,274.083 348.204,273.578 348.23,273.04L348.23,255.9C348.241,255.159 347.801,254.481 347.12,254.19C346.775,254.01 346.389,253.921 346,253.93L345.56,253.93L345.56,253.57L353.12,253.57C356.81,253.52 359.19,254.53 360.28,256.54ZM360.35,269.22C360.35,265.607 357.47,263.803 351.71,263.81L351.71,263.44C356.05,263.44 358.227,261.95 358.24,258.97C358.24,256.07 356.52,254.61 353.09,254.61L350.56,254.61L350.56,274.23L354.72,274.23C356.181,274.301 357.622,273.866 358.8,273C359.876,272.051 360.45,270.652 360.35,269.22Z" style="fill:white;fill-rule:nonzero;"/>
        </g>
        <g transform="matrix(1,0,0,1,27.34,-173.9)">
            <path d="M367.21,275C367.842,275.007 368.458,274.803 368.96,274.42C369.39,274.09 369.648,273.582 369.66,273.04L369.66,255.9C369.651,255.348 369.375,254.833 368.92,254.52C368.414,254.121 367.784,253.912 367.14,253.93L366.66,253.93L366.66,253.57L375,253.57L375,253.9L374.52,253.9C373.901,253.882 373.294,254.076 372.8,254.45C372.345,254.753 372.05,255.246 372,255.79L372,273C372.033,273.55 372.322,274.054 372.78,274.36C373.283,274.733 373.894,274.929 374.52,274.92L375,274.92L375,275.28L366.62,275.28L366.62,275L367.21,275Z" style="fill:white;fill-rule:nonzero;"/>
        </g>
        <g transform="matrix(1,0,0,1,27.34,-173.9)">
            <path d="M379.66,275C380.213,275.009 380.749,274.809 381.16,274.44C381.551,274.093 381.786,273.602 381.81,273.08L381.81,255.9C381.791,255.364 381.543,254.862 381.13,254.52C380.713,254.131 380.16,253.92 379.59,253.93L379.14,253.93L379.14,253.57L386.82,253.57L386.82,253.9L386.37,253.9C385.8,253.89 385.247,254.101 384.83,254.49C384.418,254.828 384.182,255.337 384.19,255.87L384.19,274.2L390,274.2C390.994,274.219 391.98,274.021 392.89,273.62C393.585,273.299 394.2,272.828 394.69,272.24C395.162,271.579 395.568,270.872 395.9,270.13L396.27,270.13L394.27,275.32L379.15,275.32L379.15,275L379.66,275Z" style="fill:white;fill-rule:nonzero;"/>
        </g>
        <g transform="matrix(1,0,0,1,27.34,-173.9)">
            <path d="M399.55,275C400.179,275.012 400.794,274.807 401.29,274.42C401.737,274.086 402.001,273.558 402,273L402,255.9C401.991,255.348 401.715,254.833 401.26,254.52C400.754,254.121 400.124,253.912 399.48,253.93L399,253.93L399,253.57L407.38,253.57L407.38,253.9L406.9,253.9C406.278,253.884 405.668,254.078 405.17,254.45C404.718,254.754 404.427,255.247 404.38,255.79L404.38,273C404.41,273.548 404.695,274.052 405.15,274.36C405.656,274.733 406.271,274.929 406.9,274.92L407.38,274.92L407.38,275.28L399,275.28L399,275L399.55,275Z" style="fill:white;fill-rule:nonzero;"/>
        </g>
        <g transform="matrix(1,0,0,1,27.34,-173.9)">
            <path d="M421.39,254.58L421.39,273C421.395,273.727 421.832,274.384 422.5,274.67C422.835,274.838 423.205,274.924 423.58,274.92L423.98,274.92L423.98,275.28L416.35,275.28L416.35,275L416.79,275C417.352,275.009 417.897,274.801 418.31,274.42C418.725,274.061 418.974,273.548 419,273L419,254.58L412.29,254.58C411.78,254.551 411.282,254.749 410.93,255.12C410.598,255.474 410.418,255.945 410.43,256.43L410.43,257L410,257L410,252.9C410.676,253.133 411.378,253.28 412.09,253.34C412.75,253.42 413.42,253.46 414.09,253.48L426.18,253.48C427.593,253.538 429.006,253.341 430.35,252.9L430.35,257L430,257L430,256.42C430.008,255.934 429.825,255.463 429.49,255.11C429.14,254.749 428.653,254.553 428.15,254.57L421.39,254.58Z" style="fill:white;fill-rule:nonzero;"/>
        </g>
        <g transform="matrix(1,0,0,1,27.34,-173.9)">
            <path d="M454.8,253.9L454.35,253.9C453.677,253.898 453.016,254.082 452.44,254.43C451.852,254.762 451.34,255.216 450.94,255.76L443.82,266.33L443.82,273C443.82,273.529 444.05,274.033 444.45,274.38C444.863,274.785 445.422,275.008 446,275L446.45,275L446.45,275.36L438.85,275.36L438.85,275L439.29,275C439.852,275.009 440.397,274.801 440.81,274.42C441.21,274.073 441.44,273.569 441.44,273.04L441.44,266.32L434.58,255.74C433.827,254.597 432.538,253.916 431.17,253.94L430.69,253.94L430.69,253.58L439.29,253.58L439.29,253.94L438.84,253.94C438.454,253.907 438.077,254.073 437.84,254.38C437.659,254.59 437.55,254.853 437.53,255.13C437.524,255.319 437.548,255.508 437.6,255.69L443.02,265.1L448.76,255.73C448.834,255.538 448.875,255.335 448.88,255.13C448.852,254.853 448.74,254.592 448.56,254.38C448.303,254.065 447.904,253.899 447.5,253.94L447,253.94L447,253.58L454.75,253.58L454.8,253.9Z" style="fill:white;fill-rule:nonzero;"/>
        </g>
        <rect x="430.56" y="37.81" width="34.53" height="34.07" style="fill:rgb(0,102,0);"/>
        <g transform="matrix(1,0,0,1,27.34,-173.9)">
            <path d="M435.45,213L435.39,213C435,213.46 434.39,213.71 434.03,214.15C433.593,214.589 433.068,214.93 432.49,215.15C432.189,215.262 431.911,215.428 431.67,215.64C431.484,215.791 431.283,215.921 431.07,216.03C430.478,216.308 430.091,216.897 430.07,217.55C430.03,217.839 430.03,218.131 430.07,218.42C430.124,218.962 429.843,219.486 429.36,219.74C429.038,219.951 428.743,220.199 428.48,220.48C427.88,221.08 427.25,221.65 426.69,222.29C426.286,222.802 425.841,223.28 425.36,223.72C425.092,223.968 424.793,224.179 424.47,224.35C424.222,224.481 423.996,224.65 423.8,224.85C422.92,225.521 422.11,226.278 421.38,227.11C421.23,227.3 421.07,227.41 420.84,227.27C420.698,227.185 420.61,227.032 420.61,226.866C420.61,226.779 420.634,226.694 420.68,226.62C420.81,226.39 421.02,226.23 421.14,225.99C421.466,225.424 421.563,224.755 421.41,224.12C421.284,223.797 421.073,223.514 420.8,223.3C420.504,223.005 420.084,222.867 419.67,222.93L419,222.93C418.192,222.902 417.502,223.542 417.47,224.35C417.376,225.106 417.722,225.853 418.36,226.27C418.836,226.563 419.191,227.017 419.36,227.55C419.411,227.693 419.437,227.844 419.437,227.996C419.437,228.558 419.08,229.063 418.55,229.25C418.289,229.33 418.011,229.33 417.75,229.25C417.006,229.064 416.274,228.83 415.56,228.55C415.478,228.53 415.392,228.53 415.31,228.55C414.08,228.55 412.86,228.45 411.64,228.55C411.196,228.532 410.77,228.367 410.43,228.08C410.12,227.86 409.84,227.61 409.56,227.37C409.014,226.833 408.177,226.711 407.5,227.07C407.172,227.231 406.858,227.419 406.56,227.63C406.335,227.791 406.067,227.881 405.79,227.89C405.73,227.89 405.63,227.89 405.62,227.96C405.61,228.03 405.69,228.07 405.76,228.09L407.25,228.76C407.465,228.817 407.689,228.834 407.91,228.81C408.482,228.92 409.076,228.809 409.57,228.5C409.669,228.431 409.801,228.431 409.9,228.5L411.57,229.5C411.936,229.733 412.349,229.88 412.78,229.93C412.98,229.969 413.175,230.033 413.36,230.12C413.954,230.211 414.537,230.362 415.1,230.57C415.19,230.602 415.285,230.619 415.38,230.62L416.38,230.62C416.744,230.617 417.082,230.813 417.26,231.13C417.63,231.804 417.913,232.524 418.1,233.27C418.187,233.691 418.234,234.12 418.24,234.55C418.24,234.86 418.46,235.12 418.42,235.45C418.351,235.927 418.351,236.413 418.42,236.89C418.407,237.341 418.333,237.789 418.2,238.22C417.988,239.086 417.831,239.964 417.73,240.85C417.718,241.063 417.66,241.271 417.56,241.46C417.34,241.87 417.24,242.33 417,242.73C417,242.73 416.94,242.82 416.95,242.86C417,243.29 416.69,243.56 416.51,243.86C416.4,244.073 416.316,244.297 416.26,244.53C416.12,244.906 415.956,245.274 415.77,245.63C415.722,245.717 415.63,245.771 415.53,245.77L401.65,245.77L401.65,207.9L439.86,207.9L439.86,245.73C439.86,245.73 423.47,245.79 423.39,245.73C423.31,245.67 423.15,245.6 423.22,245.43C423.587,244.339 423.746,243.189 423.69,242.04C423.732,241.202 423.599,240.364 423.3,239.58C423.17,239.19 423.18,238.78 423.04,238.39C422.882,237.791 422.759,237.183 422.67,236.57C422.55,236.08 422.35,235.62 422.23,235.14C422.113,234.725 422.039,234.3 422.01,233.87L422.01,232.22C421.993,231.803 422.097,231.389 422.31,231.03C422.451,230.661 422.568,230.284 422.66,229.9C422.761,229.471 422.959,229.07 423.24,228.73C423.523,228.392 423.787,228.038 424.03,227.67C424.085,227.566 424.169,227.48 424.27,227.42C424.93,226.91 425.498,226.291 425.95,225.59C426.359,224.877 426.838,224.207 427.38,223.59C427.681,223.295 427.937,222.958 428.14,222.59C428.339,222.292 428.582,222.026 428.86,221.8C429.74,220.9 430.61,220 431.51,219.13C431.872,218.783 432.288,218.496 432.74,218.28C433.75,217.757 434.546,216.897 434.99,215.85C435.23,215.337 435.357,214.777 435.36,214.21C435.334,213.804 435.364,213.397 435.45,213ZM422.88,219.54C422.87,219.357 422.87,219.173 422.88,218.99C422.913,218.474 422.744,217.965 422.41,217.57C421.844,216.809 421.171,216.136 420.41,215.57C420.162,215.372 419.894,215.201 419.61,215.06C419.426,214.932 419.169,214.977 419.04,215.16C419.019,215.195 419.002,215.232 418.99,215.27C418.949,215.397 418.899,215.52 418.84,215.64C418.519,216.13 418.391,216.721 418.48,217.3C418.423,217.846 418.509,218.397 418.73,218.9C418.859,219.22 418.943,219.557 418.98,219.9C419.104,220.29 419.29,220.658 419.53,220.99C419.973,221.638 420.517,222.212 421.14,222.69C421.52,222.98 421.64,222.97 421.86,222.69C422.099,222.342 422.319,221.981 422.52,221.61C422.872,220.963 422.998,220.217 422.88,219.49L422.88,219.54ZM417.54,227C417.54,226.88 417.54,226.84 417.47,226.78C417.062,226.277 416.824,225.657 416.79,225.01C416.799,224.782 416.762,224.554 416.68,224.34C416.372,223.886 415.932,223.537 415.42,223.34C414.995,223.14 414.544,223.002 414.08,222.93C413.78,222.87 413.48,222.82 413.18,222.73C412.793,222.591 412.39,222.5 411.98,222.46C411.074,222.462 410.169,222.518 409.27,222.63C409.19,222.63 409.09,222.63 409.17,222.76C409.249,222.955 409.34,223.145 409.44,223.33C409.736,223.782 410.07,224.206 410.44,224.6C410.758,224.816 411.053,225.064 411.32,225.34C411.606,225.763 412.071,226.032 412.58,226.07C413.45,226.07 414.28,226.34 415.14,226.26C415.583,226.239 416.023,226.332 416.42,226.53C416.804,226.66 417.178,226.817 417.54,227ZM431,230C431.339,230.014 431.678,229.966 432,229.86C432.29,229.74 432.57,229.6 432.85,229.45C433.257,229.281 433.605,228.996 433.85,228.63C434.149,227.978 434.412,227.31 434.64,226.63C434.75,226.415 434.818,226.181 434.84,225.94C434.84,225.82 434.84,225.65 434.66,225.73C434.31,225.88 433.92,225.93 433.57,226.09C432.795,226.49 431.955,226.747 431.09,226.85C430.939,226.87 430.791,226.91 430.65,226.97C430,227.2 429.41,227.55 428.76,227.75C428.368,227.842 428.017,228.06 427.76,228.37C427.55,228.63 427.6,228.85 427.89,228.99C428.048,229.06 428.202,229.141 428.35,229.23C429.165,229.671 430.074,229.911 431,229.93L431,230ZM429.38,236C429.85,236 429.99,235.87 429.89,235.43C429.76,234.862 429.69,234.282 429.68,233.7C429.66,233.353 429.572,233.013 429.42,232.7C428.971,231.932 428.316,231.305 427.53,230.89C427.023,230.58 426.491,230.312 425.94,230.09C425.54,229.93 425.37,230.02 425.36,230.45L425.36,232.21C425.349,232.337 425.373,232.465 425.43,232.58C425.68,233.01 425.87,233.48 426.16,233.91C426.585,234.502 427.135,234.993 427.77,235.35C428.11,235.56 428.5,235.64 428.83,235.85C429.001,235.931 429.193,235.959 429.38,235.93L429.38,236ZM414.84,232.52L414,232.52C413.593,232.482 413.186,232.588 412.85,232.82C412.711,232.908 412.559,232.972 412.4,233.01C411.852,233.139 411.357,233.432 410.98,233.85C410.64,234.17 410.69,234.22 410.98,234.55C411.361,234.824 411.762,235.068 412.18,235.28C412.565,235.557 413.037,235.688 413.51,235.65L413.8,235.65C414.264,235.721 414.74,235.659 415.17,235.47C415.551,235.277 415.89,235.012 416.17,234.69C416.484,234.394 416.782,234.08 417.06,233.75C417.27,233.534 417.27,233.186 417.06,232.97C416.975,232.883 416.861,232.829 416.74,232.82C416.665,232.802 416.594,232.772 416.53,232.73C416.242,232.521 415.883,232.431 415.53,232.48C415.284,232.462 415.036,232.462 414.79,232.48L414.84,232.52ZM424.43,215.36C424.479,214.971 424.363,214.579 424.11,214.28C423.963,214.078 423.845,213.856 423.76,213.62C423.494,212.907 423.046,212.276 422.46,211.79C422.344,211.676 422.156,211.676 422.04,211.79C421.661,212.164 421.415,212.653 421.34,213.18C421.137,213.732 421.113,214.334 421.27,214.9C421.476,215.518 421.791,216.094 422.2,216.6C422.51,216.955 422.845,217.29 423.2,217.6C423.53,217.94 423.64,217.79 423.82,217.6C423.992,217.333 424.117,217.039 424.19,216.73C424.369,216.268 424.451,215.775 424.43,215.28L424.43,215.36ZM431.1,223.76C432.013,223.809 432.878,223.33 433.32,222.53C433.67,221.99 433.91,221.39 434.23,220.83C434.411,220.58 434.357,220.225 434.11,220.04C434.076,220.021 434.038,220.008 434,220C433.426,219.83 432.811,219.851 432.25,220.06C431.4,220.354 430.714,220.994 430.36,221.82C430.091,222.354 429.876,222.913 429.72,223.49C429.648,223.631 429.681,223.805 429.8,223.91C429.907,223.999 430.063,223.999 430.17,223.91C430.453,223.751 430.776,223.678 431.1,223.7L431.1,223.76ZM423.16,234.37C423.161,234.679 423.191,234.987 423.25,235.29C423.475,235.966 423.813,236.598 424.25,237.16C424.366,237.342 424.549,237.472 424.76,237.52C424.895,237.569 425.023,237.636 425.14,237.72C425.438,237.913 425.785,238.021 426.14,238.03C426.35,238.03 426.44,237.93 426.45,237.71C426.451,237.371 426.4,237.034 426.3,236.71C426.142,235.782 425.831,234.886 425.38,234.06C425.156,233.605 424.809,233.221 424.38,232.95C424.205,232.817 424.041,232.669 423.89,232.51C423.84,232.463 423.774,232.436 423.705,232.436C423.556,232.436 423.435,232.558 423.435,232.706C423.435,232.724 423.436,232.742 423.44,232.76C423.449,232.893 423.429,233.026 423.38,233.15C423.216,233.507 423.141,233.898 423.16,234.29L423.16,234.37ZM429.2,215C429.19,214.857 429.19,214.713 429.2,214.57C429.2,214.37 429.2,214.34 428.99,214.39C428.48,214.5 427.99,214.7 427.49,214.82C427.168,214.882 426.872,215.038 426.64,215.27C426.427,215.539 426.24,215.827 426.08,216.13C425.799,216.53 425.739,217.046 425.92,217.5C425.971,217.623 425.991,217.757 425.98,217.89C425.908,218.304 426.187,218.704 426.6,218.78C426.706,218.795 426.814,218.795 426.92,218.78L427.31,218.61C427.895,218.334 428.371,217.869 428.66,217.29C429.031,216.559 429.216,215.749 429.2,214.93L429.2,215ZM411.14,230.5C410.849,230.471 410.555,230.509 410.28,230.61C409.716,230.901 409.195,231.268 408.73,231.7C408.47,231.91 408.46,232.07 408.73,232.28C409.141,232.595 409.58,232.872 410.04,233.11C410.192,233.181 410.368,233.181 410.52,233.11C410.73,233.02 410.96,232.98 411.17,232.89C411.798,232.503 412.348,232.001 412.79,231.41C412.9,231.3 412.79,231.17 412.79,231.04C412.79,230.91 412.47,230.88 412.31,230.8C411.954,230.597 411.55,230.493 411.14,230.5ZM417.04,220.5L417.53,220.5C417.703,220.447 417.805,220.265 417.76,220.09C417.75,220.054 417.733,220.02 417.71,219.99C417.35,219.53 416.98,219.08 416.6,218.64C415.99,217.93 415.18,218.03 414.42,217.95C414.059,217.973 413.702,218.027 413.35,218.11C413.1,218.11 413.03,218.34 413.21,218.51C413.39,218.68 413.7,219.06 413.96,219.31C414.201,219.6 414.492,219.844 414.82,220.03C415.521,220.331 416.277,220.481 417.04,220.47L417.04,220.5ZM425.59,220.6C425.622,219.973 425.372,219.364 424.91,218.94C424.5,218.62 424.12,218.63 423.91,219.12C423.661,219.562 423.476,220.036 423.36,220.53C423.27,220.915 423.27,221.315 423.36,221.7C423.467,222.06 423.636,222.398 423.86,222.7C423.97,222.91 424.16,223.21 424.42,223.17C424.68,223.13 424.78,222.81 424.88,222.55C424.971,222.197 425.116,221.859 425.31,221.55C425.501,221.278 425.599,220.952 425.59,220.62L425.59,220.6ZM428.93,226.76C429.15,226.76 429.39,226.83 429.58,226.7C430.128,226.322 430.588,225.831 430.93,225.26C431.01,225.14 431.05,224.95 430.93,224.86C430.694,224.645 430.404,224.499 430.09,224.44C429.07,224.382 428.085,224.831 427.46,225.64C427.379,225.719 427.334,225.827 427.334,225.94C427.334,226.053 427.379,226.161 427.46,226.24C427.483,226.274 427.514,226.301 427.55,226.32C427.98,226.51 428.39,226.9 428.94,226.73L428.93,226.76ZM415.46,238.08C415.83,238.2 416.19,237.92 416.58,237.87C416.835,237.827 417.048,237.651 417.14,237.41C417.23,237.15 417.3,236.89 417.39,236.64C417.473,236.446 417.429,236.22 417.28,236.07C417.12,235.91 416.94,235.97 416.77,236.07C416.164,236.253 415.58,236.505 415.03,236.82C414.86,236.899 414.712,237.019 414.6,237.17C414.462,237.267 414.38,237.426 414.38,237.595C414.38,237.88 414.615,238.115 414.9,238.115C414.923,238.115 414.947,238.113 414.97,238.11C415.134,238.11 415.297,238.1 415.46,238.08Z" style="fill:white;fill-rule:nonzero;"/>
        </g>
    </g>
</svg>
