<?xml version="1.0" encoding="UTF-8" standalone="no"?>
<!DOCTYPE svg PUBLIC "-//W3C//DTD SVG 1.1//EN" "http://www.w3.org/Graphics/SVG/1.1/DTD/svg11.dtd">
<svg width="100%" height="100%" viewBox="0 0 310 102" version="1.1" xmlns="http://www.w3.org/2000/svg" xmlns:xlink="http://www.w3.org/1999/xlink" xml:space="preserve" xmlns:serif="http://www.serif.com/" style="fill-rule:evenodd;clip-rule:evenodd;stroke-linejoin:round;stroke-miterlimit:2;">
    <g transform="matrix(1,0,0,1,0,-151)">
        <g id="Artboard2" transform="matrix(0.642967,0,0,1,0,-0.96)">
            <rect x="0" y="151.96" width="482.14" height="101.96" style="fill:none;"/>
            <g transform="matrix(1,0,0,1,0.77494,0)">
                <g transform="matrix(4.074883,0,0,2.620014,-1318.009102,-391.370996)">
                    <path d="M435.45,213L435.39,213C435,213.46 434.39,213.71 434.03,214.15C433.593,214.589 433.068,214.93 432.49,215.15C432.189,215.262 431.911,215.428 431.67,215.64C431.484,215.791 431.283,215.921 431.07,216.03C430.478,216.308 430.091,216.897 430.07,217.55C430.03,217.839 430.03,218.131 430.07,218.42C430.124,218.962 429.843,219.486 429.36,219.74C429.038,219.951 428.743,220.199 428.48,220.48C427.88,221.08 427.25,221.65 426.69,222.29C426.286,222.802 425.841,223.28 425.36,223.72C425.092,223.968 424.793,224.179 424.47,224.35C424.222,224.481 423.996,224.65 423.8,224.85C422.92,225.521 422.11,226.278 421.38,227.11C421.23,227.3 421.07,227.41 420.84,227.27C420.698,227.185 420.61,227.032 420.61,226.866C420.61,226.779 420.634,226.694 420.68,226.62C420.81,226.39 421.02,226.23 421.14,225.99C421.466,225.424 421.563,224.755 421.41,224.12C421.284,223.797 421.073,223.514 420.8,223.3C420.504,223.005 420.084,222.867 419.67,222.93L419,222.93C418.192,222.902 417.502,223.542 417.47,224.35C417.376,225.106 417.722,225.853 418.36,226.27C418.836,226.563 419.191,227.017 419.36,227.55C419.411,227.693 419.437,227.844 419.437,227.996C419.437,228.558 419.08,229.063 418.55,229.25C418.289,229.33 418.011,229.33 417.75,229.25C417.006,229.064 416.274,228.83 415.56,228.55C415.478,228.53 415.392,228.53 415.31,228.55C414.08,228.55 412.86,228.45 411.64,228.55C411.196,228.532 410.77,228.367 410.43,228.08C410.12,227.86 409.84,227.61 409.56,227.37C409.014,226.833 408.177,226.711 407.5,227.07C407.172,227.231 406.858,227.419 406.56,227.63C406.335,227.791 406.067,227.881 405.79,227.89C405.73,227.89 405.63,227.89 405.62,227.96C405.61,228.03 405.69,228.07 405.76,228.09L407.25,228.76C407.465,228.817 407.689,228.834 407.91,228.81C408.482,228.92 409.076,228.809 409.57,228.5C409.669,228.431 409.801,228.431 409.9,228.5L411.57,229.5C411.936,229.733 412.349,229.88 412.78,229.93C412.98,229.969 413.175,230.033 413.36,230.12C413.954,230.211 414.537,230.362 415.1,230.57C415.19,230.602 415.285,230.619 415.38,230.62L416.38,230.62C416.744,230.617 417.082,230.813 417.26,231.13C417.63,231.804 417.913,232.524 418.1,233.27C418.187,233.691 418.234,234.12 418.24,234.55C418.24,234.86 418.46,235.12 418.42,235.45C418.351,235.927 418.351,236.413 418.42,236.89C418.407,237.341 418.333,237.789 418.2,238.22C417.988,239.086 417.831,239.964 417.73,240.85C417.718,241.063 417.66,241.271 417.56,241.46C417.34,241.87 417.24,242.33 417,242.73C417,242.73 416.94,242.82 416.95,242.86C417,243.29 416.69,243.56 416.51,243.86C416.4,244.073 416.316,244.297 416.26,244.53C416.12,244.906 415.956,245.274 415.77,245.63C415.722,245.717 415.63,245.771 415.53,245.77L401.65,245.77L401.65,207.9L439.86,207.9L439.86,245.73C439.86,245.73 423.47,245.79 423.39,245.73C423.31,245.67 423.15,245.6 423.22,245.43C423.587,244.339 423.746,243.189 423.69,242.04C423.732,241.202 423.599,240.364 423.3,239.58C423.17,239.19 423.18,238.78 423.04,238.39C422.882,237.791 422.759,237.183 422.67,236.57C422.55,236.08 422.35,235.62 422.23,235.14C422.113,234.725 422.039,234.3 422.01,233.87L422.01,232.22C421.993,231.803 422.097,231.389 422.31,231.03C422.451,230.661 422.568,230.284 422.66,229.9C422.761,229.471 422.959,229.07 423.24,228.73C423.523,228.392 423.787,228.038 424.03,227.67C424.085,227.566 424.169,227.48 424.27,227.42C424.93,226.91 425.498,226.291 425.95,225.59C426.359,224.877 426.838,224.207 427.38,223.59C427.681,223.295 427.937,222.958 428.14,222.59C428.339,222.292 428.582,222.026 428.86,221.8C429.74,220.9 430.61,220 431.51,219.13C431.872,218.783 432.288,218.496 432.74,218.28C433.75,217.757 434.546,216.897 434.99,215.85C435.23,215.337 435.357,214.777 435.36,214.21C435.334,213.804 435.364,213.397 435.45,213ZM422.88,219.54C422.87,219.357 422.87,219.173 422.88,218.99C422.913,218.474 422.744,217.965 422.41,217.57C421.844,216.809 421.171,216.136 420.41,215.57C420.162,215.372 419.894,215.201 419.61,215.06C419.426,214.932 419.169,214.977 419.04,215.16C419.019,215.195 419.002,215.232 418.99,215.27C418.949,215.397 418.899,215.52 418.84,215.64C418.519,216.13 418.391,216.721 418.48,217.3C418.423,217.846 418.509,218.397 418.73,218.9C418.859,219.22 418.943,219.557 418.98,219.9C419.104,220.29 419.29,220.658 419.53,220.99C419.973,221.638 420.517,222.212 421.14,222.69C421.52,222.98 421.64,222.97 421.86,222.69C422.099,222.342 422.319,221.981 422.52,221.61C422.872,220.963 422.998,220.217 422.88,219.49L422.88,219.54ZM417.54,227C417.54,226.88 417.54,226.84 417.47,226.78C417.062,226.277 416.824,225.657 416.79,225.01C416.799,224.782 416.762,224.554 416.68,224.34C416.372,223.886 415.932,223.537 415.42,223.34C414.995,223.14 414.544,223.002 414.08,222.93C413.78,222.87 413.48,222.82 413.18,222.73C412.793,222.591 412.39,222.5 411.98,222.46C411.074,222.462 410.169,222.518 409.27,222.63C409.19,222.63 409.09,222.63 409.17,222.76C409.249,222.955 409.34,223.145 409.44,223.33C409.736,223.782 410.07,224.206 410.44,224.6C410.758,224.816 411.053,225.064 411.32,225.34C411.606,225.763 412.071,226.032 412.58,226.07C413.45,226.07 414.28,226.34 415.14,226.26C415.583,226.239 416.023,226.332 416.42,226.53C416.804,226.66 417.178,226.817 417.54,227ZM431,230C431.339,230.014 431.678,229.966 432,229.86C432.29,229.74 432.57,229.6 432.85,229.45C433.257,229.281 433.605,228.996 433.85,228.63C434.149,227.978 434.412,227.31 434.64,226.63C434.75,226.415 434.818,226.181 434.84,225.94C434.84,225.82 434.84,225.65 434.66,225.73C434.31,225.88 433.92,225.93 433.57,226.09C432.795,226.49 431.955,226.747 431.09,226.85C430.939,226.87 430.791,226.91 430.65,226.97C430,227.2 429.41,227.55 428.76,227.75C428.368,227.842 428.017,228.06 427.76,228.37C427.55,228.63 427.6,228.85 427.89,228.99C428.048,229.06 428.202,229.141 428.35,229.23C429.165,229.671 430.074,229.911 431,229.93L431,230ZM429.38,236C429.85,236 429.99,235.87 429.89,235.43C429.76,234.862 429.69,234.282 429.68,233.7C429.66,233.353 429.572,233.013 429.42,232.7C428.971,231.932 428.316,231.305 427.53,230.89C427.023,230.58 426.491,230.312 425.94,230.09C425.54,229.93 425.37,230.02 425.36,230.45L425.36,232.21C425.349,232.337 425.373,232.465 425.43,232.58C425.68,233.01 425.87,233.48 426.16,233.91C426.585,234.502 427.135,234.993 427.77,235.35C428.11,235.56 428.5,235.64 428.83,235.85C429.001,235.931 429.193,235.959 429.38,235.93L429.38,236ZM414.84,232.52L414,232.52C413.593,232.482 413.186,232.588 412.85,232.82C412.711,232.908 412.559,232.972 412.4,233.01C411.852,233.139 411.357,233.432 410.98,233.85C410.64,234.17 410.69,234.22 410.98,234.55C411.361,234.824 411.762,235.068 412.18,235.28C412.565,235.557 413.037,235.688 413.51,235.65L413.8,235.65C414.264,235.721 414.74,235.659 415.17,235.47C415.551,235.277 415.89,235.012 416.17,234.69C416.484,234.394 416.782,234.08 417.06,233.75C417.27,233.534 417.27,233.186 417.06,232.97C416.975,232.883 416.861,232.829 416.74,232.82C416.665,232.802 416.594,232.772 416.53,232.73C416.242,232.521 415.883,232.431 415.53,232.48C415.284,232.462 415.036,232.462 414.79,232.48L414.84,232.52ZM424.43,215.36C424.479,214.971 424.363,214.579 424.11,214.28C423.963,214.078 423.845,213.856 423.76,213.62C423.494,212.907 423.046,212.276 422.46,211.79C422.344,211.676 422.156,211.676 422.04,211.79C421.661,212.164 421.415,212.653 421.34,213.18C421.137,213.732 421.113,214.334 421.27,214.9C421.476,215.518 421.791,216.094 422.2,216.6C422.51,216.955 422.845,217.29 423.2,217.6C423.53,217.94 423.64,217.79 423.82,217.6C423.992,217.333 424.117,217.039 424.19,216.73C424.369,216.268 424.451,215.775 424.43,215.28L424.43,215.36ZM431.1,223.76C432.013,223.809 432.878,223.33 433.32,222.53C433.67,221.99 433.91,221.39 434.23,220.83C434.411,220.58 434.357,220.225 434.11,220.04C434.076,220.021 434.038,220.008 434,220C433.426,219.83 432.811,219.851 432.25,220.06C431.4,220.354 430.714,220.994 430.36,221.82C430.091,222.354 429.876,222.913 429.72,223.49C429.648,223.631 429.681,223.805 429.8,223.91C429.907,223.999 430.063,223.999 430.17,223.91C430.453,223.751 430.776,223.678 431.1,223.7L431.1,223.76ZM423.16,234.37C423.161,234.679 423.191,234.987 423.25,235.29C423.475,235.966 423.813,236.598 424.25,237.16C424.366,237.342 424.549,237.472 424.76,237.52C424.895,237.569 425.023,237.636 425.14,237.72C425.438,237.913 425.785,238.021 426.14,238.03C426.35,238.03 426.44,237.93 426.45,237.71C426.451,237.371 426.4,237.034 426.3,236.71C426.142,235.782 425.831,234.886 425.38,234.06C425.156,233.605 424.809,233.221 424.38,232.95C424.205,232.817 424.041,232.669 423.89,232.51C423.84,232.463 423.774,232.436 423.705,232.436C423.556,232.436 423.435,232.558 423.435,232.706C423.435,232.724 423.436,232.742 423.44,232.76C423.449,232.893 423.429,233.026 423.38,233.15C423.216,233.507 423.141,233.898 423.16,234.29L423.16,234.37ZM429.2,215C429.19,214.857 429.19,214.713 429.2,214.57C429.2,214.37 429.2,214.34 428.99,214.39C428.48,214.5 427.99,214.7 427.49,214.82C427.168,214.882 426.872,215.038 426.64,215.27C426.427,215.539 426.24,215.827 426.08,216.13C425.799,216.53 425.739,217.046 425.92,217.5C425.971,217.623 425.991,217.757 425.98,217.89C425.908,218.304 426.187,218.704 426.6,218.78C426.706,218.795 426.814,218.795 426.92,218.78L427.31,218.61C427.895,218.334 428.371,217.869 428.66,217.29C429.031,216.559 429.216,215.749 429.2,214.93L429.2,215ZM411.14,230.5C410.849,230.471 410.555,230.509 410.28,230.61C409.716,230.901 409.195,231.268 408.73,231.7C408.47,231.91 408.46,232.07 408.73,232.28C409.141,232.595 409.58,232.872 410.04,233.11C410.192,233.181 410.368,233.181 410.52,233.11C410.73,233.02 410.96,232.98 411.17,232.89C411.798,232.503 412.348,232.001 412.79,231.41C412.9,231.3 412.79,231.17 412.79,231.04C412.79,230.91 412.47,230.88 412.31,230.8C411.954,230.597 411.55,230.493 411.14,230.5ZM417.04,220.5L417.53,220.5C417.703,220.447 417.805,220.265 417.76,220.09C417.75,220.054 417.733,220.02 417.71,219.99C417.35,219.53 416.98,219.08 416.6,218.64C415.99,217.93 415.18,218.03 414.42,217.95C414.059,217.973 413.702,218.027 413.35,218.11C413.1,218.11 413.03,218.34 413.21,218.51C413.39,218.68 413.7,219.06 413.96,219.31C414.201,219.6 414.492,219.844 414.82,220.03C415.521,220.331 416.277,220.481 417.04,220.47L417.04,220.5ZM425.59,220.6C425.622,219.973 425.372,219.364 424.91,218.94C424.5,218.62 424.12,218.63 423.91,219.12C423.661,219.562 423.476,220.036 423.36,220.53C423.27,220.915 423.27,221.315 423.36,221.7C423.467,222.06 423.636,222.398 423.86,222.7C423.97,222.91 424.16,223.21 424.42,223.17C424.68,223.13 424.78,222.81 424.88,222.55C424.971,222.197 425.116,221.859 425.31,221.55C425.501,221.278 425.599,220.952 425.59,220.62L425.59,220.6ZM428.93,226.76C429.15,226.76 429.39,226.83 429.58,226.7C430.128,226.322 430.588,225.831 430.93,225.26C431.01,225.14 431.05,224.95 430.93,224.86C430.694,224.645 430.404,224.499 430.09,224.44C429.07,224.382 428.085,224.831 427.46,225.64C427.379,225.719 427.334,225.827 427.334,225.94C427.334,226.053 427.379,226.161 427.46,226.24C427.483,226.274 427.514,226.301 427.55,226.32C427.98,226.51 428.39,226.9 428.94,226.73L428.93,226.76ZM415.46,238.08C415.83,238.2 416.19,237.92 416.58,237.87C416.835,237.827 417.048,237.651 417.14,237.41C417.23,237.15 417.3,236.89 417.39,236.64C417.473,236.446 417.429,236.22 417.28,236.07C417.12,235.91 416.94,235.97 416.77,236.07C416.164,236.253 415.58,236.505 415.03,236.82C414.86,236.899 414.712,237.019 414.6,237.17C414.462,237.267 414.38,237.426 414.38,237.595C414.38,237.88 414.615,238.115 414.9,238.115C414.923,238.115 414.947,238.113 414.97,238.11C415.134,238.11 415.297,238.1 415.46,238.08Z" style="fill:white;fill-rule:nonzero;"/>
                </g>
                <g transform="matrix(1.55529,0,0,1,6.221161,-3.02416)">
                    <g transform="matrix(1,0,0,1,27.34,-18.80584)">
                        <path d="M-25.53,272.3C-23.201,272.336 -20.959,271.405 -19.34,269.73C-17.664,268.104 -16.69,265.884 -16.63,263.55L-16.63,185.71C-16.886,183.542 -17.929,181.541 -19.56,180.09C-21.183,178.57 -23.337,177.744 -25.56,177.79L-27.2,177.79L-27.34,176.4L13.38,176.4C16.527,176.368 19.666,176.091 22.77,175.57C25.2,175.239 27.594,174.68 29.92,173.9L29.92,191.41L28.53,191.41L28.53,188.9C28.541,184.554 25.091,180.918 20.75,180.7L-7.6,180.7L-7.6,223.7L15.89,223.7C17.69,223.649 19.402,222.899 20.66,221.61C21.952,220.329 22.658,218.569 22.61,216.75L22.61,214.75L24,214.75L24,236.75L22.56,236.75L22.56,234.68C22.589,232.91 21.904,231.2 20.66,229.94C19.448,228.646 17.772,227.883 16,227.82L-7.6,227.82L-7.6,269.38L12.27,269.38C19.13,269.38 24.367,267.853 27.98,264.8C31.593,261.747 34.593,257.207 36.98,251.18L38.37,251.18L30.37,273.69L-27.34,273.69L-27.34,272.3L-25.53,272.3Z" style="fill:white;fill-rule:nonzero;"/>
                    </g>
                    <g transform="matrix(1,0,0,1,27.34,-18.80584)">
                        <path d="M49.24,268C48.884,265.517 48.747,263.007 48.83,260.5C48.877,256.477 49.58,252.488 50.91,248.69L52.16,248.69C52.07,249.69 52.02,250.69 52.02,251.69C51.84,256.895 53.683,261.972 57.16,265.85C60.593,269.603 65.133,271.48 70.78,271.48C76.62,271.48 81.417,269.72 85.17,266.2C88.874,262.787 90.928,257.935 90.8,252.9C90.972,247.987 88.991,243.236 85.38,239.9L58.66,215.18C53.833,210.935 51.092,204.788 51.16,198.36C51.036,192.08 53.412,186.002 57.76,181.47C62.16,176.803 68.113,174.47 75.62,174.47C79.657,174.517 83.679,174.983 87.62,175.86L93,175.86L93,192.86L91.79,192.86C91.95,188.882 90.284,185.041 87.27,182.44C84.017,179.756 79.883,178.37 75.67,178.55C71.219,178.43 66.91,180.153 63.77,183.31C60.59,186.419 58.858,190.725 59,195.17C58.983,199.859 61.015,204.33 64.56,207.4L91.94,232.69C96.56,236.95 98.893,242.787 98.94,250.2C98.987,257.613 96.623,263.707 91.85,268.48C87.13,273.24 80.83,275.627 72.95,275.64C68.553,275.591 64.181,274.959 59.95,273.76C55.317,272.52 51.747,270.6 49.24,268Z" style="fill:white;fill-rule:nonzero;"/>
                    </g>
                    <g transform="matrix(1,0,0,1,27.34,-18.80584)">
                        <path d="M111.51,268C111.151,265.517 111.01,263.007 111.09,260.5C111.136,256.476 111.842,252.486 113.18,248.69L114.43,248.69C114.33,249.69 114.29,250.69 114.29,251.69C114.115,256.879 115.958,261.939 119.43,265.8C122.85,269.553 127.39,271.43 133.05,271.43C138.89,271.43 143.687,269.67 147.44,266.15C151.128,262.752 153.177,257.923 153.06,252.91C153.244,247.999 151.27,243.245 147.66,239.91L121,215.18C116.166,210.939 113.421,204.79 113.49,198.36C113.37,192.079 115.749,186.001 120.1,181.47C124.48,176.803 130.43,174.47 137.95,174.47C141.987,174.517 146.009,174.983 149.95,175.86L155.37,175.86L155.37,192.86L154.12,192.86C154.28,188.882 152.614,185.041 149.6,182.44C146.34,179.773 142.208,178.401 138,178.59C133.563,178.472 129.266,180.179 126.12,183.31C122.939,186.403 121.2,190.695 121.33,195.13C121.313,199.819 123.345,204.29 126.89,207.36L154.27,232.65C158.89,236.91 161.207,242.747 161.22,250.16C161.233,257.573 158.87,263.667 154.13,268.44C149.397,273.2 143.097,275.587 135.23,275.6C130.833,275.551 126.461,274.919 122.23,273.72C117.577,272.5 114.003,270.593 111.51,268Z" style="fill:white;fill-rule:nonzero;"/>
                    </g>
                </g>
            </g>
        </g>
    </g>
</svg>
